<?xml version="1.0" encoding="UTF-8" standalone="no" ?>
<!DOCTYPE svg PUBLIC "-//W3C//DTD SVG 1.1//EN" "http://www.w3.org/Graphics/SVG/1.1/DTD/svg11.dtd">
<svg xmlns="http://www.w3.org/2000/svg" xmlns:xlink="http://www.w3.org/1999/xlink" version="1.1" width="1280" height="1024" viewBox="0 0 1280 1024" xml:space="preserve">
<desc>Created with Fabric.js 3.1.0</desc>
<defs>
</defs>
<g transform="matrix(1.965451055662188 0 0 1.965451055662188 815.7881448070727 438.2305601454159)" id="text-logo-path"  >
<path style="stroke: none; stroke-width: 0; stroke-dasharray: none; stroke-linecap: butt; stroke-dashoffset: 0; stroke-linejoin: miter; stroke-miterlimit: 4; fill: rgb(255,255,255); fill-rule: nonzero; opacity: 1;"  paint-order="stroke"  transform=" translate(-99.6, 32.25)" d="M 4.38 -15.47 L 4.38 -15.47 L 4.38 -48.94 Q 4.38 -53.8 7.05 -57.62 L 7.05 -57.62 Q 9.58 -61.4 13.84 -63.16 L 13.84 -63.16 Q 16.54 -64.41 19.89 -64.41 L 19.89 -64.41 Q 24.66 -64.41 28.53 -61.79 L 28.53 -61.79 Q 32.4 -59.25 34.16 -55 L 34.16 -55 Q 35.36 -52.08 35.36 -49.16 L 35.36 -49.16 Q 35.36 -47.18 34.1 -45.89 Q 32.83 -44.6 31.07 -44.6 L 31.07 -44.6 Q 29.22 -44.6 27.95 -45.89 Q 26.68 -47.18 26.68 -48.94 L 26.68 -48.94 Q 26.68 -51.13 25.52 -52.81 L 25.52 -52.81 Q 24.36 -54.48 22.52 -55.26 L 22.52 -55.26 Q 21.27 -55.77 19.89 -55.77 L 19.89 -55.77 Q 17.96 -55.77 16.11 -54.66 L 16.11 -54.66 Q 14.22 -53.41 13.62 -51.56 L 13.62 -51.56 Q 13.02 -50.4 13.02 -48.94 L 13.02 -48.94 L 13.02 -15.47 Q 13.02 -13.45 14.27 -11.69 L 14.27 -11.69 Q 15.43 -10.01 17.23 -9.24 L 17.23 -9.24 Q 18.39 -8.72 19.89 -8.72 L 19.89 -8.72 Q 22 -8.72 23.68 -9.84 L 23.68 -9.84 Q 25.27 -10.83 26.13 -12.85 L 26.13 -12.85 Q 26.64 -14.18 26.68 -15.47 L 26.68 -15.47 Q 26.68 -17.23 27.95 -18.52 Q 29.22 -19.81 31.07 -19.81 L 31.07 -19.81 Q 32.83 -19.81 34.1 -18.52 Q 35.36 -17.23 35.36 -15.47 L 35.36 -15.47 Q 35.36 -13.19 34.68 -11 Q 33.99 -8.81 32.74 -6.88 L 32.74 -6.88 Q 30.21 -3.01 25.87 -1.25 L 25.87 -1.25 Q 22.95 0 19.89 0 L 19.89 0 Q 15.34 0 11.17 -2.62 L 11.17 -2.62 Q 7.39 -5.16 5.63 -9.5 L 5.63 -9.5 Q 4.38 -12.42 4.38 -15.47 Z M 42.84 -4.47 L 42.84 -4.47 L 42.84 -60.2 Q 42.84 -61.96 44.11 -63.23 Q 45.38 -64.5 47.14 -64.5 L 47.14 -64.5 L 68.96 -64.5 Q 70.73 -64.5 71.99 -63.23 Q 73.26 -61.96 73.26 -60.2 L 73.26 -60.2 Q 73.26 -58.44 71.99 -57.15 Q 70.73 -55.86 68.96 -55.86 L 68.96 -55.86 L 53.02 -55.86 Q 52.34 -55.86 51.88 -55.43 Q 51.43 -55 51.43 -54.31 L 51.43 -54.31 L 51.43 -38.2 Q 51.43 -37.51 51.88 -37.1 Q 52.34 -36.7 53.02 -36.7 L 53.02 -36.7 L 64.54 -36.7 Q 66.3 -36.7 67.59 -35.43 Q 68.88 -34.16 68.88 -32.31 L 68.88 -32.31 Q 68.88 -30.55 67.59 -29.26 Q 66.3 -27.97 64.54 -27.97 L 64.54 -27.97 L 53.02 -27.97 Q 52.34 -27.97 51.88 -27.54 Q 51.43 -27.11 51.43 -26.38 L 51.43 -26.38 L 51.43 -10.31 Q 51.43 -9.71 51.88 -9.26 Q 52.34 -8.81 53.02 -8.81 L 53.02 -8.81 L 68.96 -8.81 Q 70.73 -8.81 71.99 -7.52 Q 73.26 -6.23 73.26 -4.47 L 73.26 -4.47 Q 73.26 -2.62 71.99 -1.35 Q 70.73 -0.09 68.96 -0.09 L 68.96 -0.09 L 47.14 -0.09 Q 45.38 -0.09 44.11 -1.35 Q 42.84 -2.62 42.84 -4.47 Z M 79.49 -4.38 L 79.49 -4.38 L 79.49 -60.11 Q 79.49 -61.88 80.78 -63.16 L 80.78 -63.16 Q 82.03 -64.41 83.88 -64.41 L 83.88 -64.41 L 95.86 -64.41 Q 101.49 -64.41 106.05 -61.32 L 106.05 -61.32 Q 110.6 -58.22 112.75 -53.32 L 112.75 -53.32 Q 113.44 -51.56 113.8 -49.8 Q 114.17 -48.04 114.17 -46.19 L 114.17 -46.19 Q 114.17 -40.48 110.99 -36.01 L 110.99 -36.01 Q 110.39 -35.02 109.63 -34.14 Q 108.88 -33.26 108.07 -32.57 L 108.07 -32.57 Q 107.64 -32.14 107.55 -31.52 Q 107.46 -30.89 107.81 -30.46 L 107.81 -30.46 Q 110.26 -27.2 110.82 -23.33 L 110.82 -23.33 Q 111.07 -21.74 111.38 -19.59 Q 111.68 -17.45 112 -15.1 Q 112.32 -12.76 112.62 -10.61 Q 112.92 -8.46 113.18 -7.05 L 113.18 -7.05 L 113.44 -5.03 Q 113.48 -4.68 113.48 -4.38 L 113.48 -4.38 Q 113.48 -3.01 112.62 -1.8 L 112.62 -1.8 Q 111.5 -0.34 109.74 -0.09 L 109.74 -0.09 Q 109.57 0 109.14 0 L 109.14 0 Q 107.55 0 106.33 -1.05 Q 105.1 -2.11 104.8 -3.78 L 104.8 -3.78 Q 104.8 -3.87 104.5 -6.02 Q 104.2 -8.16 103.81 -11.13 Q 103.43 -14.09 102.97 -17.12 Q 102.52 -20.15 102.27 -22.09 L 102.27 -22.09 Q 101.84 -24.62 99.99 -26.21 L 99.99 -26.21 Q 98.05 -27.89 95.56 -27.89 L 95.56 -27.89 L 89.76 -27.89 Q 89.07 -27.89 88.62 -27.46 Q 88.17 -27.03 88.17 -26.3 L 88.17 -26.3 L 88.17 -4.38 Q 88.17 -2.54 86.9 -1.27 Q 85.64 0 83.88 0 L 83.88 0 Q 82.03 0 80.76 -1.27 Q 79.49 -2.54 79.49 -4.38 Z M 88.17 -54.23 L 88.17 -38.11 Q 88.17 -37.51 88.62 -37.06 Q 89.07 -36.61 89.76 -36.61 L 89.76 -36.61 L 95.56 -36.61 L 95.65 -36.61 L 95.78 -36.61 L 95.86 -36.61 Q 98.87 -36.61 101.19 -38.2 L 101.19 -38.2 Q 103.64 -39.79 104.71 -42.41 L 104.71 -42.41 Q 105.4 -44.34 105.45 -46.19 L 105.45 -46.19 Q 105.45 -49.03 103.86 -51.56 L 103.86 -51.56 Q 102.18 -53.93 99.64 -55 L 99.64 -55 Q 97.8 -55.77 95.86 -55.77 L 95.86 -55.77 L 89.76 -55.77 Q 89.07 -55.77 88.62 -55.34 Q 88.17 -54.91 88.17 -54.23 L 88.17 -54.23 Z M 121.69 -17.06 L 121.69 -17.06 L 121.69 -47.61 Q 121.69 -50.14 122.44 -52.57 Q 123.19 -55 124.61 -57.02 L 124.61 -57.02 Q 127.45 -61.32 132.09 -63.16 L 132.09 -63.16 Q 135.27 -64.5 138.7 -64.5 L 138.7 -64.5 Q 143.99 -64.5 148.2 -61.62 L 148.2 -61.62 Q 152.41 -58.78 154.26 -54.23 L 154.26 -54.23 Q 155.68 -50.88 155.68 -47.61 L 155.68 -47.61 L 155.68 -17.06 Q 155.68 -11.95 152.75 -7.56 L 152.75 -7.56 Q 151.34 -5.54 149.47 -3.95 Q 147.6 -2.36 145.28 -1.42 L 145.28 -1.42 Q 142.1 -0.09 138.7 -0.09 L 138.7 -0.09 Q 133.59 -0.09 129.21 -3.01 L 129.21 -3.01 Q 127.19 -4.43 125.6 -6.29 Q 124.01 -8.16 123.02 -10.48 L 123.02 -10.48 Q 121.69 -13.66 121.69 -17.06 Z M 130.41 -47.61 L 130.41 -17.06 Q 130.41 -14.44 131.83 -12.42 L 131.83 -12.42 Q 133.16 -10.4 135.44 -9.41 L 135.44 -9.41 Q 136.94 -8.81 138.7 -8.81 L 138.7 -8.81 Q 141.32 -8.81 143.34 -10.23 L 143.34 -10.23 Q 145.36 -11.56 146.35 -13.84 L 146.35 -13.84 Q 146.95 -15.34 146.95 -17.06 L 146.95 -17.06 L 146.95 -47.61 Q 146.95 -50.23 145.54 -52.16 L 145.54 -52.16 Q 144.2 -54.18 141.93 -55.17 L 141.93 -55.17 Q 140.25 -55.86 138.7 -55.86 L 138.7 -55.86 Q 136.34 -55.86 134.02 -54.48 L 134.02 -54.48 Q 132 -53.15 131.05 -50.79 L 131.05 -50.79 Q 130.71 -50.1 130.56 -49.24 Q 130.41 -48.38 130.41 -47.61 L 130.41 -47.61 Z M 163.67 -48.94 L 163.67 -48.94 Q 163.67 -51.3 164.38 -53.5 Q 165.09 -55.69 166.33 -57.62 L 166.33 -57.62 Q 169.17 -61.49 173.16 -63.16 L 173.16 -63.16 Q 175.87 -64.41 179.18 -64.41 L 179.18 -64.41 Q 184.04 -64.41 187.86 -61.79 L 187.86 -61.79 Q 191.55 -59.25 193.49 -55 L 193.49 -55 Q 194.65 -52.16 194.65 -48.94 L 194.65 -48.94 Q 194.65 -47.18 193.38 -45.89 Q 192.11 -44.6 190.35 -44.6 L 190.35 -44.6 Q 188.59 -44.6 187.3 -45.89 Q 186.01 -47.18 186.01 -48.94 L 186.01 -48.94 Q 186.01 -50.96 184.89 -52.81 L 184.89 -52.81 Q 183.65 -54.48 181.8 -55.26 L 181.8 -55.26 Q 180.55 -55.77 179.18 -55.77 L 179.18 -55.77 Q 179.09 -55.77 179.05 -55.77 L 179.05 -55.77 Q 177.07 -55.77 175.36 -54.57 L 175.36 -54.57 Q 173.68 -53.41 172.91 -51.56 L 172.91 -51.56 Q 172.39 -50.32 172.39 -48.94 L 172.39 -48.94 Q 172.39 -47.35 172.99 -46.02 L 172.99 -46.02 Q 173.51 -44.52 174.84 -42.75 L 174.84 -42.75 Q 175.91 -41.25 177.68 -39.55 Q 179.44 -37.86 182.06 -35.54 L 182.06 -35.54 Q 183.22 -34.55 184.57 -33.39 Q 185.93 -32.23 187.26 -30.81 L 187.26 -30.81 Q 188.68 -29.39 189.69 -28.12 Q 190.7 -26.86 191.55 -25.61 L 191.55 -25.61 Q 192.97 -23.5 193.57 -21.66 L 193.57 -21.66 Q 194.82 -18.48 194.82 -15.47 L 194.82 -15.47 Q 194.82 -10.79 192.11 -6.88 L 192.11 -6.88 Q 189.58 -3.18 185.32 -1.25 L 185.32 -1.25 Q 182.32 0 179.35 0 L 179.35 0 Q 174.58 0 170.63 -2.71 L 170.63 -2.71 Q 166.85 -5.24 165 -9.5 L 165 -9.5 Q 163.84 -12.33 163.84 -15.47 L 163.84 -15.47 Q 163.84 -17.32 165.13 -18.61 Q 166.42 -19.89 168.18 -19.89 L 168.18 -19.89 Q 169.94 -19.89 171.21 -18.61 Q 172.48 -17.32 172.48 -15.47 L 172.48 -15.47 Q 172.48 -13.54 173.64 -11.69 L 173.64 -11.69 Q 174.88 -10.01 176.6 -9.24 L 176.6 -9.24 Q 177.93 -8.72 179.35 -8.72 L 179.35 -8.72 Q 181.46 -8.72 183.13 -9.84 L 183.13 -9.84 Q 184.81 -11.09 185.58 -12.85 L 185.58 -12.85 Q 186.1 -14.18 186.1 -15.55 L 186.1 -15.55 Q 186.1 -17.14 185.5 -18.48 L 185.5 -18.48 Q 184.98 -19.98 183.73 -21.66 L 183.73 -21.66 Q 182.57 -23.16 180.88 -24.92 Q 179.18 -26.68 176.43 -28.96 L 176.43 -28.96 Q 174.75 -30.46 173.04 -31.99 Q 171.32 -33.52 169.81 -35.28 L 169.81 -35.28 Q 166.38 -38.97 164.91 -42.75 L 164.91 -42.75 Q 163.67 -45.93 163.67 -48.94 Z" stroke-linecap="round" />
</g>
<g transform="matrix(1.965451055662188 0 0 1.965451055662188 814.9013885690689 605.9742005126504)" id="tagline-78cdb8d7-7e08-44c2-8f61-92923316b449-logo-path"  >
<path style="stroke: none; stroke-width: 0; stroke-dasharray: none; stroke-linecap: butt; stroke-dashoffset: 0; stroke-linejoin: miter; stroke-miterlimit: 4; fill: rgb(255,255,255); fill-rule: nonzero; opacity: 1;"  paint-order="stroke"  transform=" translate(-127.235, 16.125)" d="M 2.11 -2.19 L 2.11 -2.19 L 2.11 -30.06 Q 2.11 -30.85 2.59 -31.42 Q 3.07 -31.99 3.82 -32.16 L 3.82 -32.16 Q 3.95 -32.21 4.28 -32.21 L 4.28 -32.21 Q 5.69 -32.21 6.25 -30.94 L 6.25 -30.94 L 11.88 -18.26 Q 11.92 -18 12.27 -18 L 12.27 -18 Q 12.57 -18 12.72 -18.26 L 12.72 -18.26 L 18.3 -30.94 Q 18.56 -31.56 19.11 -31.88 Q 19.66 -32.21 20.28 -32.21 L 20.28 -32.21 Q 20.58 -32.21 20.73 -32.16 L 20.73 -32.16 Q 21.48 -31.99 21.99 -31.42 Q 22.49 -30.85 22.49 -30.06 L 22.49 -30.06 L 22.49 -2.19 Q 22.49 -1.27 21.83 -0.63 Q 21.16 0 20.28 0 L 20.28 0 Q 19.4 0 18.77 -0.63 Q 18.13 -1.27 18.13 -2.19 L 18.13 -2.19 L 18.13 -17.6 Q 18.13 -17.94 17.77 -18.05 L 17.77 -18.05 L 17.64 -18.05 Q 17.38 -18.05 17.25 -17.77 L 17.25 -17.77 L 14.27 -11.04 Q 14.01 -10.46 13.47 -10.12 Q 12.93 -9.78 12.27 -9.78 L 12.27 -9.78 Q 11.64 -9.78 11.11 -10.12 Q 10.57 -10.46 10.29 -11.04 L 10.29 -11.04 L 7.35 -17.77 Q 7.22 -18.11 6.81 -18.05 L 6.81 -18.05 Q 6.47 -17.96 6.47 -17.6 L 6.47 -17.6 L 6.47 -2.19 Q 6.47 -1.27 5.81 -0.63 Q 5.16 0 4.28 0 L 4.28 0 Q 3.39 0 2.75 -0.63 Q 2.11 -1.27 2.11 -2.19 Z M 26.96 -2.23 L 26.96 -2.23 L 26.96 -30.1 Q 26.96 -30.98 27.6 -31.61 Q 28.23 -32.25 29.11 -32.25 L 29.11 -32.25 L 40.03 -32.25 Q 40.91 -32.25 41.54 -31.61 Q 42.17 -30.98 42.17 -30.1 L 42.17 -30.1 Q 42.17 -29.22 41.54 -28.57 Q 40.91 -27.93 40.03 -27.93 L 40.03 -27.93 L 32.05 -27.93 Q 31.71 -27.93 31.49 -27.71 Q 31.26 -27.5 31.26 -27.16 L 31.26 -27.16 L 31.26 -19.1 Q 31.26 -18.76 31.49 -18.55 Q 31.71 -18.35 32.05 -18.35 L 32.05 -18.35 L 37.81 -18.35 Q 38.69 -18.35 39.34 -17.71 Q 39.98 -17.08 39.98 -16.16 L 39.98 -16.16 Q 39.98 -15.28 39.34 -14.63 Q 38.69 -13.99 37.81 -13.99 L 37.81 -13.99 L 32.05 -13.99 Q 31.71 -13.99 31.49 -13.77 Q 31.26 -13.56 31.26 -13.19 L 31.26 -13.19 L 31.26 -5.16 Q 31.26 -4.86 31.49 -4.63 Q 31.71 -4.4 32.05 -4.4 L 32.05 -4.4 L 40.03 -4.4 Q 40.91 -4.4 41.54 -3.76 Q 42.17 -3.12 42.17 -2.23 L 42.17 -2.23 Q 42.17 -1.31 41.54 -0.68 Q 40.91 -0.04 40.03 -0.04 L 40.03 -0.04 L 29.11 -0.04 Q 28.23 -0.04 27.6 -0.68 Q 26.96 -1.31 26.96 -2.23 Z M 45.96 -2.23 L 45.96 -2.23 L 45.96 -30.1 Q 45.96 -30.98 46.6 -31.65 L 46.6 -31.65 Q 47.2 -32.25 48.08 -32.25 L 48.08 -32.25 Q 48.1 -32.25 48.15 -32.25 L 48.15 -32.25 L 53.52 -32.25 Q 56.29 -32.25 58.61 -30.72 L 58.61 -30.72 Q 60.84 -29.13 61.92 -26.71 L 61.92 -26.71 Q 62.63 -25.03 62.63 -23.14 L 62.63 -23.14 L 62.63 -9.2 Q 62.63 -6.38 61.08 -4.08 L 61.08 -4.08 Q 59.49 -1.74 57.04 -0.79 L 57.04 -0.79 Q 55.32 -0.04 53.52 -0.04 L 53.52 -0.04 L 48.15 -0.04 Q 47.27 -0.04 46.6 -0.71 L 46.6 -0.71 Q 45.93 -1.38 45.96 -2.23 Z M 50.29 -27.16 L 50.29 -5.16 Q 50.29 -4.86 50.52 -4.63 Q 50.75 -4.4 51.09 -4.4 L 51.09 -4.4 L 53.52 -4.4 Q 54.94 -4.4 56.2 -5.2 L 56.2 -5.2 Q 57.38 -6.04 57.92 -7.3 L 57.92 -7.3 Q 58.31 -8.23 58.31 -9.2 L 58.31 -9.2 L 58.31 -23.14 Q 58.31 -24.49 57.47 -25.82 L 57.47 -25.82 Q 56.63 -27.05 55.37 -27.54 L 55.37 -27.54 Q 54.48 -27.93 53.52 -27.93 L 53.52 -27.93 L 51.09 -27.93 Q 50.75 -27.93 50.52 -27.71 Q 50.29 -27.5 50.29 -27.16 L 50.29 -27.16 Z M 67.16 -2.19 L 67.16 -2.19 L 67.16 -30.06 Q 67.16 -30.94 67.79 -31.57 Q 68.43 -32.21 69.31 -32.21 L 69.31 -32.21 Q 70.19 -32.21 70.82 -31.57 Q 71.46 -30.94 71.46 -30.06 L 71.46 -30.06 L 71.46 -2.19 Q 71.46 -1.27 70.82 -0.63 Q 70.19 0 69.31 0 L 69.31 0 Q 68.43 0 67.79 -0.63 Q 67.16 -1.27 67.16 -2.19 Z M 75.17 -7.73 L 75.17 -7.73 L 75.17 -24.47 Q 75.17 -26.9 76.51 -28.81 L 76.51 -28.81 Q 77.77 -30.7 79.9 -31.58 L 79.9 -31.58 Q 81.25 -32.21 82.93 -32.21 L 82.93 -32.21 Q 85.31 -32.21 87.25 -30.89 L 87.25 -30.89 Q 89.18 -29.63 90.06 -27.5 L 90.06 -27.5 Q 90.66 -26.04 90.66 -24.58 L 90.66 -24.58 Q 90.66 -23.59 90.03 -22.95 Q 89.4 -22.3 88.52 -22.3 L 88.52 -22.3 Q 87.59 -22.3 86.96 -22.95 Q 86.32 -23.59 86.32 -24.47 L 86.32 -24.47 Q 86.32 -25.57 85.74 -26.4 L 85.74 -26.4 Q 85.16 -27.24 84.24 -27.63 L 84.24 -27.63 Q 83.62 -27.89 82.93 -27.89 L 82.93 -27.89 Q 81.96 -27.89 81.04 -27.33 L 81.04 -27.33 Q 80.09 -26.71 79.79 -25.78 L 79.79 -25.78 Q 79.49 -25.2 79.49 -24.47 L 79.49 -24.47 L 79.49 -7.73 Q 79.49 -6.72 80.12 -5.84 L 80.12 -5.84 Q 80.7 -5.01 81.6 -4.62 L 81.6 -4.62 Q 82.18 -4.36 82.93 -4.36 L 82.93 -4.36 Q 83.98 -4.36 84.82 -4.92 L 84.82 -4.92 Q 85.62 -5.41 86.04 -6.42 L 86.04 -6.42 Q 86.3 -7.09 86.32 -7.73 L 86.32 -7.73 Q 86.32 -8.62 86.96 -9.26 Q 87.59 -9.9 88.52 -9.9 L 88.52 -9.9 Q 89.4 -9.9 90.03 -9.26 Q 90.66 -8.62 90.66 -7.73 L 90.66 -7.73 Q 90.66 -6.6 90.32 -5.5 Q 89.98 -4.4 89.35 -3.44 L 89.35 -3.44 Q 88.09 -1.5 85.92 -0.62 L 85.92 -0.62 Q 84.46 0 82.93 0 L 82.93 0 Q 80.65 0 78.57 -1.31 L 78.57 -1.31 Q 76.68 -2.58 75.8 -4.75 L 75.8 -4.75 Q 75.17 -6.21 75.17 -7.73 Z M 94.12 -2.15 L 94.12 -2.15 L 94.12 -23.76 Q 94.12 -25.03 94.5 -26.24 Q 94.88 -27.46 95.58 -28.47 L 95.58 -28.47 Q 97 -30.62 99.32 -31.54 L 99.32 -31.54 Q 100.91 -32.21 102.63 -32.21 L 102.63 -32.21 Q 105.27 -32.21 107.38 -30.77 L 107.38 -30.77 Q 109.48 -29.35 110.41 -27.07 L 110.41 -27.07 Q 111.12 -25.39 111.12 -23.76 L 111.12 -23.76 L 111.12 -2.15 Q 111.12 -1.27 110.47 -0.63 Q 109.83 0 108.9 0 L 108.9 0 Q 108.02 0 107.39 -0.63 Q 106.76 -1.27 106.76 -2.15 L 106.76 -2.15 L 106.76 -11.04 Q 106.76 -11.39 106.54 -11.61 Q 106.33 -11.84 105.96 -11.84 L 105.96 -11.84 L 99.28 -11.84 Q 98.94 -11.84 98.71 -11.61 Q 98.48 -11.39 98.48 -11.04 L 98.48 -11.04 L 98.48 -2.15 Q 98.48 -1.27 97.85 -0.63 Q 97.22 0 96.29 0 L 96.29 0 Q 95.41 0 94.77 -0.63 Q 94.12 -1.27 94.12 -2.15 Z M 98.48 -23.76 L 98.48 -16.93 Q 98.48 -16.59 98.71 -16.39 Q 98.94 -16.2 99.28 -16.2 L 99.28 -16.2 L 105.96 -16.2 Q 106.3 -16.2 106.53 -16.39 Q 106.76 -16.59 106.76 -16.93 L 106.76 -16.93 L 106.76 -23.76 Q 106.76 -25.07 106.05 -26.04 L 106.05 -26.04 Q 105.38 -27.05 104.24 -27.54 L 104.24 -27.54 Q 103.4 -27.89 102.63 -27.89 L 102.63 -27.89 Q 101.45 -27.89 100.29 -27.2 L 100.29 -27.2 Q 99.28 -26.53 98.79 -25.35 L 98.79 -25.35 Q 98.61 -25.01 98.55 -24.58 Q 98.48 -24.15 98.48 -23.76 L 98.48 -23.76 Z M 115.59 -2.19 L 115.59 -2.19 L 115.59 -30.06 Q 115.59 -30.94 116.25 -31.57 Q 116.92 -32.21 117.8 -32.21 L 117.8 -32.21 Q 118.68 -32.21 119.31 -31.57 Q 119.95 -30.94 119.95 -30.06 L 119.95 -30.06 L 119.95 -5.11 Q 119.95 -4.81 120.17 -4.59 Q 120.4 -4.36 120.74 -4.36 L 120.74 -4.36 L 126.2 -4.36 Q 127.08 -4.36 127.71 -3.72 Q 128.35 -3.07 128.35 -2.19 L 128.35 -2.19 Q 128.35 -1.27 127.71 -0.63 Q 127.08 0 126.2 0 L 126.2 0 L 117.8 0 Q 116.92 0 116.25 -0.63 Q 115.59 -1.27 115.59 -2.19 Z M 140.51 -24.47 L 140.51 -24.47 Q 140.51 -25.65 140.86 -26.75 Q 141.22 -27.84 141.84 -28.81 L 141.84 -28.81 Q 143.26 -30.74 145.26 -31.58 L 145.26 -31.58 Q 146.61 -32.21 148.26 -32.21 L 148.26 -32.21 Q 150.69 -32.21 152.6 -30.89 L 152.6 -30.89 Q 154.45 -29.63 155.42 -27.5 L 155.42 -27.5 Q 156 -26.08 156 -24.47 L 156 -24.47 Q 156 -23.59 155.36 -22.95 Q 154.73 -22.3 153.85 -22.3 L 153.85 -22.3 Q 152.97 -22.3 152.32 -22.95 Q 151.68 -23.59 151.68 -24.47 L 151.68 -24.47 Q 151.68 -25.48 151.12 -26.4 L 151.12 -26.4 Q 150.5 -27.24 149.57 -27.63 L 149.57 -27.63 Q 148.95 -27.89 148.26 -27.89 L 148.26 -27.89 Q 148.22 -27.89 148.2 -27.89 L 148.2 -27.89 Q 147.21 -27.89 146.35 -27.29 L 146.35 -27.29 Q 145.51 -26.71 145.13 -25.78 L 145.13 -25.78 Q 144.87 -25.16 144.87 -24.47 L 144.87 -24.47 Q 144.87 -23.68 145.17 -23.01 L 145.17 -23.01 Q 145.43 -22.26 146.09 -21.38 L 146.09 -21.38 Q 146.63 -20.63 147.51 -19.78 Q 148.39 -18.93 149.7 -17.77 L 149.7 -17.77 Q 150.28 -17.27 150.96 -16.69 Q 151.64 -16.11 152.3 -15.4 L 152.3 -15.4 Q 153.01 -14.7 153.52 -14.06 Q 154.02 -13.43 154.45 -12.8 L 154.45 -12.8 Q 155.16 -11.75 155.46 -10.83 L 155.46 -10.83 Q 156.08 -9.24 156.08 -7.73 L 156.08 -7.73 Q 156.08 -5.39 154.73 -3.44 L 154.73 -3.44 Q 153.46 -1.59 151.34 -0.62 L 151.34 -0.62 Q 149.83 0 148.35 0 L 148.35 0 Q 145.96 0 143.99 -1.35 L 143.99 -1.35 Q 142.1 -2.62 141.17 -4.75 L 141.17 -4.75 Q 140.59 -6.17 140.59 -7.73 L 140.59 -7.73 Q 140.59 -8.66 141.24 -9.3 Q 141.88 -9.95 142.76 -9.95 L 142.76 -9.95 Q 143.64 -9.95 144.28 -9.3 Q 144.91 -8.66 144.91 -7.73 L 144.91 -7.73 Q 144.91 -6.77 145.49 -5.84 L 145.49 -5.84 Q 146.12 -5.01 146.97 -4.62 L 146.97 -4.62 Q 147.64 -4.36 148.35 -4.36 L 148.35 -4.36 Q 149.4 -4.36 150.24 -4.92 L 150.24 -4.92 Q 151.08 -5.54 151.46 -6.42 L 151.46 -6.42 Q 151.72 -7.09 151.72 -7.78 L 151.72 -7.78 Q 151.72 -8.57 151.42 -9.24 L 151.42 -9.24 Q 151.16 -9.99 150.54 -10.83 L 150.54 -10.83 Q 149.96 -11.58 149.11 -12.46 Q 148.26 -13.34 146.89 -14.48 L 146.89 -14.48 Q 146.05 -15.23 145.19 -16 Q 144.33 -16.76 143.58 -17.64 L 143.58 -17.64 Q 141.86 -19.49 141.13 -21.38 L 141.13 -21.38 Q 140.51 -22.97 140.51 -24.47 Z M 159.93 -8.49 L 159.93 -8.49 L 159.93 -30.06 Q 159.93 -30.94 160.57 -31.57 Q 161.22 -32.21 162.1 -32.21 L 162.1 -32.21 Q 162.98 -32.21 163.61 -31.57 Q 164.25 -30.94 164.25 -30.06 L 164.25 -30.06 L 164.25 -8.49 Q 164.25 -7.3 164.96 -6.17 L 164.96 -6.17 Q 165.62 -5.16 166.8 -4.66 L 166.8 -4.66 Q 167.15 -4.49 167.57 -4.43 Q 167.99 -4.36 168.39 -4.36 L 168.39 -4.36 Q 169.71 -4.36 170.71 -5.07 L 170.71 -5.07 Q 171.72 -5.74 172.22 -6.85 L 172.22 -6.85 Q 172.56 -7.69 172.56 -8.49 L 172.56 -8.49 L 172.56 -30.06 Q 172.56 -30.94 173.21 -31.57 Q 173.85 -32.21 174.73 -32.21 L 174.73 -32.21 Q 175.61 -32.21 176.25 -31.57 Q 176.88 -30.94 176.88 -30.06 L 176.88 -30.06 L 176.88 -8.49 Q 176.88 -5.84 175.42 -3.74 L 175.42 -3.74 Q 174 -1.68 171.68 -0.67 L 171.68 -0.67 Q 170.13 0 168.39 0 L 168.39 0 Q 165.88 0 163.69 -1.46 L 163.69 -1.46 Q 162.68 -2.17 161.88 -3.1 Q 161.09 -4.04 160.6 -5.2 L 160.6 -5.2 Q 159.93 -6.79 159.93 -8.49 Z M 181.5 -2.19 L 181.5 -2.19 L 181.5 -30.06 Q 181.5 -30.98 182.1 -31.58 L 182.1 -31.58 Q 182.72 -32.21 183.65 -32.21 L 183.65 -32.21 L 188.57 -32.21 Q 191.68 -32.21 194.3 -30.49 L 194.3 -30.49 Q 196.78 -28.81 198 -26 L 198 -26 Q 198.79 -24.06 198.79 -22.04 L 198.79 -22.04 Q 198.79 -18.97 197.03 -16.33 L 197.03 -16.33 Q 195.31 -13.81 192.54 -12.68 L 192.54 -12.68 Q 190.74 -11.84 188.57 -11.84 L 188.57 -11.84 L 186.59 -11.84 Q 186.29 -11.84 186.08 -11.62 L 186.08 -11.62 Q 185.82 -11.41 185.8 -11.09 L 185.8 -11.09 L 185.8 -2.19 Q 185.8 -1.27 185.16 -0.63 Q 184.53 0 183.65 0 L 183.65 0 Q 182.77 0 182.13 -0.63 Q 181.5 -1.27 181.5 -2.19 Z M 185.8 -27.11 L 185.8 -16.93 Q 185.8 -16.63 186.02 -16.41 Q 186.25 -16.2 186.59 -16.2 L 186.59 -16.2 L 188.57 -16.2 Q 190.33 -16.2 191.88 -17.21 L 191.88 -17.21 Q 193.34 -18.18 193.98 -19.77 L 193.98 -19.77 Q 194.41 -20.78 194.43 -22.04 L 194.43 -22.04 Q 194.43 -23.8 193.42 -25.31 L 193.42 -25.31 Q 192.5 -26.73 190.87 -27.41 L 190.87 -27.41 Q 189.81 -27.89 188.68 -27.89 L 188.68 -27.89 Q 188.61 -27.89 188.57 -27.89 L 188.57 -27.89 L 186.59 -27.89 Q 186.25 -27.89 186.02 -27.67 Q 185.8 -27.46 185.8 -27.11 L 185.8 -27.11 Z M 202.51 -2.19 L 202.51 -2.19 L 202.51 -30.06 Q 202.51 -30.98 203.11 -31.58 L 203.11 -31.58 Q 203.74 -32.21 204.66 -32.21 L 204.66 -32.21 L 209.58 -32.21 Q 212.7 -32.21 215.32 -30.49 L 215.32 -30.49 Q 217.79 -28.81 219.01 -26 L 219.01 -26 Q 219.81 -24.06 219.81 -22.04 L 219.81 -22.04 Q 219.81 -18.97 218.04 -16.33 L 218.04 -16.33 Q 216.33 -13.81 213.55 -12.68 L 213.55 -12.68 Q 211.75 -11.84 209.58 -11.84 L 209.58 -11.84 L 207.6 -11.84 Q 207.3 -11.84 207.09 -11.62 L 207.09 -11.62 Q 206.83 -11.41 206.81 -11.09 L 206.81 -11.09 L 206.81 -2.19 Q 206.81 -1.27 206.17 -0.63 Q 205.54 0 204.66 0 L 204.66 0 Q 203.78 0 203.15 -0.63 Q 202.51 -1.27 202.51 -2.19 Z M 206.81 -27.11 L 206.81 -16.93 Q 206.81 -16.63 207.03 -16.41 Q 207.26 -16.2 207.6 -16.2 L 207.6 -16.2 L 209.58 -16.2 Q 211.34 -16.2 212.89 -17.21 L 212.89 -17.21 Q 214.35 -18.18 214.99 -19.77 L 214.99 -19.77 Q 215.42 -20.78 215.45 -22.04 L 215.45 -22.04 Q 215.45 -23.8 214.44 -25.31 L 214.44 -25.31 Q 213.51 -26.73 211.88 -27.41 L 211.88 -27.41 Q 210.83 -27.89 209.69 -27.89 L 209.69 -27.89 Q 209.62 -27.89 209.58 -27.89 L 209.58 -27.89 L 207.6 -27.89 Q 207.26 -27.89 207.03 -27.67 Q 206.81 -27.46 206.81 -27.11 L 206.81 -27.11 Z M 223.33 -2.19 L 223.33 -2.19 L 223.33 -30.06 Q 223.33 -30.94 224 -31.57 Q 224.66 -32.21 225.54 -32.21 L 225.54 -32.21 Q 226.42 -32.21 227.06 -31.57 Q 227.69 -30.94 227.69 -30.06 L 227.69 -30.06 L 227.69 -5.11 Q 227.69 -4.81 227.92 -4.59 Q 228.14 -4.36 228.49 -4.36 L 228.49 -4.36 L 233.94 -4.36 Q 234.82 -4.36 235.46 -3.72 Q 236.09 -3.07 236.09 -2.19 L 236.09 -2.19 Q 236.09 -1.27 235.46 -0.63 Q 234.82 0 233.94 0 L 233.94 0 L 225.54 0 Q 224.66 0 224 -0.63 Q 223.33 -1.27 223.33 -2.19 Z M 235.43 -20.45 L 235.43 -20.45 L 235.43 -30.06 Q 235.43 -30.94 236.06 -31.57 Q 236.69 -32.21 237.57 -32.21 L 237.57 -32.21 Q 238.46 -32.21 239.1 -31.57 Q 239.74 -30.94 239.74 -30.06 L 239.74 -30.06 L 239.74 -20.45 Q 239.74 -19.27 240.43 -18.13 L 240.43 -18.13 Q 241.1 -17.12 242.28 -16.63 L 242.28 -16.63 Q 242.62 -16.46 243.05 -16.39 Q 243.48 -16.33 243.87 -16.33 L 243.87 -16.33 Q 245.18 -16.33 246.21 -17.04 L 246.21 -17.04 Q 247.22 -17.7 247.69 -18.84 L 247.69 -18.84 Q 248.04 -19.68 248.06 -20.45 L 248.06 -20.45 L 248.06 -30.06 Q 248.06 -30.94 248.69 -31.57 Q 249.33 -32.21 250.21 -32.21 L 250.21 -32.21 Q 251.09 -32.21 251.72 -31.57 Q 252.36 -30.94 252.36 -30.06 L 252.36 -30.06 L 252.36 -20.45 Q 252.36 -17.81 250.92 -15.71 L 250.92 -15.71 Q 249.5 -13.64 247.18 -12.63 L 247.18 -12.63 Q 246.96 -12.55 246.8 -12.48 Q 246.64 -12.42 246.43 -12.35 L 246.43 -12.35 Q 246.08 -12.1 246.08 -11.71 L 246.08 -11.71 L 246.08 -2.19 Q 246.08 -1.27 245.44 -0.63 Q 244.79 0 243.91 0 L 243.91 0 Q 242.99 0 242.35 -0.63 Q 241.72 -1.27 241.72 -2.19 L 241.72 -2.19 L 241.72 -11.71 Q 241.72 -12.05 241.4 -12.35 L 241.4 -12.35 Q 240.78 -12.53 240.24 -12.79 Q 239.7 -13.06 239.16 -13.43 L 239.16 -13.43 Q 238.15 -14.14 237.36 -15.07 Q 236.56 -16.01 236.09 -17.17 L 236.09 -17.17 Q 235.43 -18.76 235.43 -20.45 Z" stroke-linecap="round" />
</g>
<g transform="matrix(1.1230910851547382 0 0 1.1230910851547384 277.6046493085341 512)" style="" id="logo-logo"  >
	<g transform="matrix(1.2388033250297357 0 0 -1.2388033250297357 0 0)"  >
<path style="stroke: none; stroke-width: 1; stroke-dasharray: none; stroke-linecap: butt; stroke-dashoffset: 0; stroke-linejoin: miter; stroke-miterlimit: 4; fill: rgb(255,255,255); fill-rule: nonzero; opacity: 1;"  paint-order="stroke"  transform=" translate(106.3231883679121, -48.31152846371029)" d="m 0 0 c 0 -10.837 -3.547 -20.843 -9.556 -28.921 c -1.506 -1.689 -3.054 -3.336 -4.673 -4.954 c -1.872 -1.872 -3.786 -3.659 -5.755 -5.376 c -45.669 -39.94 -115.094 -38.14 -158.61 5.376 c -45.387 45.388 -45.415 118.992 -0.013 164.379 c 44.387 44.389 115.783 45.359 161.353 2.913 c 1.027 -0.942 2.04 -1.914 3.04 -2.913 c 0.985 -0.985 1.956 -1.998 2.87 -3.011 c 7.502 -9.993 7.713 -23.771 0.648 -33.988 c -0.985 -1.45 -2.125 -2.815 -3.392 -4.081 c -3.602 -3.603 -7.923 -6.052 -12.511 -7.389 c -9.866 -2.857 -20.956 -0.394 -28.738 7.389 c -22.701 22.714 -59.517 22.714 -82.232 0 c -22.701 -22.715 -22.701 -59.518 0 -82.233 c 11.442 -11.441 26.458 -17.113 41.461 -17.014 c 4.939 0.028 9.879 0.676 14.678 1.97 c 1.478 0.394 2.928 0.844 4.377 1.351 c 7.558 2.66 14.665 6.924 20.801 12.807 c 0.141 0.098 0.296 0.212 0.437 0.338 c 0.182 0.155 0.365 0.337 0.548 0.521 c 0.084 0.084 0.169 0.168 0.253 0.267 c 1.689 1.492 3.927 2.379 6.348 2.379 c 5.348 0 9.683 -4.335 9.683 -9.683 c 0 -2.562 -1 -4.912 -2.647 -6.643 c 0 -0.014 -0.014 -0.014 -0.027 -0.028 c -0.197 -0.197 -0.395 -0.394 -0.606 -0.577 c -0.07 -0.099 -0.155 -0.169 -0.254 -0.239 c -0.253 -0.268 -0.505 -0.507 -0.773 -0.76 l -0.015 -0.015 c -0.295 -0.281 -0.604 -0.576 -0.914 -0.858 c -6.671 -6.079 -14.13 -10.794 -22.039 -14.115 c -6.883 -2.913 -14.102 -4.786 -21.421 -5.616 h -0.013 c -22.645 -2.561 -46.204 4.841 -63.571 22.208 c -30.272 30.287 -30.286 79.375 -0.014 109.647 c 14.848 14.862 34.241 22.433 53.705 22.701 c 0.746 0.014 1.506 0.014 2.238 0 c 11.174 -0.155 22.32 -2.716 32.58 -7.684 c 7.656 -3.659 14.806 -8.684 21.139 -15.017 c 3.8 -3.799 9.949 -3.799 13.75 0 c 3.447 3.462 3.771 8.867 0.914 12.666 l -0.014 0.015 c -0.267 0.394 -0.577 0.746 -0.9 1.069 c -0.324 0.338 -0.676 0.647 -1.071 0.915 l -0.168 0.155 c -6.755 6.572 -14.256 11.92 -22.194 16.114 c -36.577 19.252 -82.879 13.511 -113.63 -17.24 c -37.844 -37.844 -37.844 -99.19 -0.014 -137.02 c 26.177 -26.177 63.585 -34.242 96.685 -24.193 c 13.638 4.138 26.557 11.343 37.647 21.645 c 0.014 0.014 0.042 0.028 0.056 0.056 c 1.661 1.309 3.181 2.815 4.518 4.476 c 0 0 0.014 0 0.014 0.014 c 4.053 4.996 6.488 11.372 6.488 18.324 c 0 11.399 -6.559 21.279 -16.1 26.05 c -3.927 1.97 -8.36 3.082 -13.047 3.082 c -8.331 0 -15.86 -3.504 -21.152 -9.119 c -0.042 -0.015 -0.057 -0.029 -0.07 -0.057 c -6.038 -5.686 -13.454 -9.049 -21.139 -10.146 c -1.688 -0.24 -3.42 -0.367 -5.123 -0.381 c -10.006 -0.071 -20.041 3.715 -27.683 11.343 c -15.143 15.158 -15.143 39.688 -0.013 54.817 c 14.833 14.833 38.66 15.157 53.873 0.929 c 0.338 -0.296 0.647 -0.605 0.957 -0.929 c 0.31 -0.31 0.62 -0.619 0.915 -0.943 c 2.899 -3.828 2.618 -9.26 -0.872 -12.751 c -3.786 -3.799 -9.95 -3.799 -13.737 0 c -7.586 7.586 -19.872 7.558 -27.443 0 c -7.558 -7.571 -7.558 -19.83 0.028 -27.415 c 7.29 -7.304 18.957 -7.544 26.572 -0.788 c 0.281 0.24 0.562 0.521 0.815 0.788 c 0.282 0.282 0.549 0.535 0.816 0.831 c 0.929 0.872 1.915 1.66 2.928 2.377 c 8.331 6.714 18.929 10.739 30.455 10.739 c 19.943 0 37.084 -12.019 44.557 -29.231 C -1.422 13.398 0 6.868 0 0" stroke-linecap="round" />
</g>
</g>
</svg>